<svg height="539.992pt" viewBox="1 1 539.992 539.992" width="539.992pt" xmlns="http://www.w3.org/2000/svg" xmlns:xlink="http://www.w3.org/1999/xlink"><linearGradient id="a"><stop offset="0" stop-color="#662d91"/><stop offset=".437" stop-color="#3873b3"/><stop offset="1" stop-color="#00c9dd"/></linearGradient><linearGradient id="b" gradientUnits="userSpaceOnUse" x1="54.000009988" x2="541.5568232305" xlink:href="#a" y1="72.000027979" y2="559.5568412215"/><linearGradient id="c" gradientUnits="userSpaceOnUse" x1="-15.7501362485" x2="471.8067769955" xlink:href="#a" y1="141.7501742155" y2="629.306987458"/><linearGradient id="d" gradientUnits="userSpaceOnUse" x1="-33.750106244" x2="453.806807" xlink:href="#a" y1="159.750144211" y2="647.3069574535"/><linearGradient id="e" gradientUnits="userSpaceOnUse" x1="-51.750176241" x2="435.806737003" xlink:href="#a" y1="177.750214208" y2="665.3070274505"/><linearGradient id="f" gradientUnits="userSpaceOnUse" x1="-69.750046235" x2="417.806867009" xlink:href="#a" y1="195.7499842005" y2="683.3068974445"/><linearGradient id="g" gradientUnits="userSpaceOnUse" x1="85.499882479" x2="573.0566957215" xlink:href="#a" y1="40.5002554895" y2="528.057068732"/><linearGradient id="h" gradientUnits="userSpaceOnUse" x1="116.99975497" x2="604.5565682125" xlink:href="#a" y1="9.0001829955" y2="496.5570962395"/><linearGradient id="i" gradientUnits="userSpaceOnUse" x1="148.5003274715" x2="636.0570407125" xlink:href="#a" y1="-22.500189503" y2="465.0566237395"/><linearGradient id="j" gradientUnits="userSpaceOnUse" x1="180.000299964" x2="667.5571132065" xlink:href="#a" y1="-54.000261997" y2="433.5567512485"/><path d="m531 378h-121.761719c38.308594-42.917969 64.722657-95.105469 76.617188-151.390625.871093-4.777344-2.203125-9.382813-6.949219-10.414063l-55.90625-12.148437v-105.046875c0-14.910156-12.089844-27-27-27h-9v-36c0-4.96875-4.03125-9-9-9s-9 4.027344-9 9v36h-18v-36c0-4.96875-4.03125-9-9-9-4.972656 0-9 4.027344-9 9v36h-18v-63c0-4.96875-4.03125-9-9-9h-72c-4.972656 0-9 4.027344-9 9v63h-18v-36c0-4.96875-4.03125-9-9.003906-9-4.96875 0-9 4.027344-9 9v36h-18v-36c0-4.96875-4.027344-9-9-9-4.96875 0-9 4.027344-9 9v36h-9c-14.910156 0-27 12.085938-27 27v105.046875l-55.90625 12.148437c-4.746094 1.03125-7.820313 5.636719-6.949219 10.414063 11.894531 56.285156 38.308594 108.472656 76.617187 151.390625h-121.757812c-4.96875 0-9 4.027344-9 9s4.027344 9 9 9h522c4.96875 0 9-4.027344 9-9s-4.03125-9-9-9zm-147.546875 0h-104.453125v-142.019531l79.199219 15.839843c.59375.125 1.195312.183594 1.800781.179688 4.96875.003906 9.003906-4.019531 9.007812-8.992188.003907-4.285156-3.007812-7.976562-7.207031-8.828124l-82.800781-16.558594v-26.453125l187.199219 40.707031c-6.039063 24.472656-27.898438 96.570312-82.746094 146.125zm-86.453125-360v18h-54v-18zm-54 36h54v18h-54zm-108 45c0-4.96875 4.027344-9 9-9h252c4.96875 0 9 4.027344 9 9v101.132812l-133.09375-28.933593c-.296875-.054688-.601562 0-.898438 0-.640624-.265625-1.359374-.265625-1.996093 0-.308594 0-.613281-.054688-.902344 0l-133.109375 28.933593zm-61.199219 132.875 187.199219-40.707031v26.453125l-82.800781 16.558594c-4.90625.808593-8.226563 5.4375-7.417969 10.34375.804688 4.902343 5.433594 8.226562 10.339844 7.417968.203125-.035156.40625-.074218.609375-.121094l79.269531-15.839843v142.019531h-104.453125c-54.847656-49.554688-76.707031-121.652344-82.746094-146.125zm0 0" fill="url(#b)"/><path d="m450 414h-369c-4.96875 0-9 4.027344-9 9 0 4.96875 4.027344 9 9 9h369c4.96875 0 9-4.027344 9-9s-4.027344-9-9-9zm0 0" fill="url(#c)"/><path d="m423 450h-315c-4.96875 0-9 4.027344-9 9 0 4.96875 4.027344 9 9 9h315c4.96875 0 9-4.027344 9-9s-4.03125-9-9-9zm0 0" fill="url(#d)"/><path d="m387 486h-243c-4.96875 0-9 4.027344-9 9 0 4.96875 4.027344 9 9 9h243c4.96875 0 9-4.027344 9-9s-4.027344-9-9-9zm0 0" fill="url(#e)"/><path d="m342 522h-153c-4.96875 0-9 4.027344-9 9 0 4.96875 4.027344 9 9 9h153c4.96875 0 9-4.027344 9-9s-4.03125-9-9-9zm0 0" fill="url(#f)"/><path d="m189 108h-27c-4.96875 0-9 4.027344-9 9v27c0 4.96875 4.027344 9 9 9h27c4.96875 0 9-4.027344 9-9v-27c0-4.96875-4.027344-9-9-9zm-9 27h-9v-9h9zm0 0" fill="url(#g)"/><path d="m252 108h-27c-4.972656 0-9 4.027344-9 9v27c0 4.96875 4.027344 9 9 9h27c4.96875 0 9-4.027344 9-9v-27c0-4.96875-4.027344-9-9-9zm-9 27h-9v-9h9zm0 0" fill="url(#h)"/><path d="m288 153h27c4.972656 0 9-4.027344 9-9v-27c0-4.96875-4.027344-9-9-9h-27c-4.96875 0-9 4.027344-9 9v27c0 4.96875 4.027344 9 9 9zm9-27h9v9h-9zm0 0" fill="url(#i)"/><path d="m351 153h27c4.96875 0 9-4.027344 9-9v-27c0-4.96875-4.027344-9-9-9h-27c-4.96875 0-9 4.027344-9 9v27c0 4.96875 4.027344 9 9 9zm9-27h9v9h-9zm0 0" fill="url(#j)"/></svg>